<svg xmlns="http://www.w3.org/2000/svg" xmlns:xlink="http://www.w3.org/1999/xlink" width="50" 
zoomAndPan="magnify" viewBox="0 0 375 374.999991" height="50" preserveAspectRatio="xMidYMid meet" version="1.0"><defs><clipPath id="bdd1347733"><path d="M 112.5 114.816406 L 262.5 114.816406 L 262.5 231 L 112.5 231 Z M 112.5 114.816406 " clip-rule="nonzero"/></clipPath><clipPath id="63d63a1094"><path d="M 150 235 L 176 235 L 176 260.316406 L 150 260.316406 Z M 150 235 " clip-rule="nonzero"/></clipPath><clipPath id="4c4bee2162"><path d="M 221 235 L 247 235 L 247 260.316406 L 221 260.316406 Z M 221 235 " clip-rule="nonzero"/></clipPath></defs><g clip-path="url(#bdd1347733)"><path fill="#ffffff" d="M 260.851562 138.886719 C 259.664062 137.441406 257.890625 136.605469 256.019531 136.605469 L 149.113281 136.605469 L 143.964844 119.304688 C 143.175781 116.644531 140.734375 114.820312 137.960938 114.820312 L 118.832031 114.820312 C 115.371094 114.820312 112.566406 117.628906 112.566406 121.09375 C 112.566406 124.558594 115.371094 127.363281 118.832031 127.363281 L 133.289062 127.363281 L 156.707031 206.101562 C 154.167969 210.757812 151.757812 217.429688 154.488281 223.015625 C 156.90625 227.960938 162.367188 230.46875 170.722656 230.46875 C 170.871094 230.46875 171.023438 230.464844 171.175781 230.449219 C 171.71875 230.398438 225.699219 225.445312 244.3125 226.5 C 247.023438 226.644531 249.375 224.566406 249.53125 221.835938 C 249.683594 219.105469 247.597656 216.765625 244.867188 216.613281 C 225.972656 215.546875 174.941406 220.160156 170.5 220.566406 C 165.921875 220.535156 163.800781 219.527344 163.378906 218.664062 C 162.90625 217.703125 163.242188 215.886719 164.035156 213.832031 C 164.167969 213.824219 164.300781 213.820312 164.4375 213.804688 L 246.21875 203.902344 C 248.921875 203.574219 251.105469 201.535156 251.617188 198.863281 L 262.171875 144.066406 C 262.527344 142.226562 262.042969 140.328125 260.851562 138.886719 Z M 215.457031 169.308594 L 189.734375 169.308594 L 189.734375 149.152344 L 215.457031 149.152344 Z M 160.609375 175.25 L 183.800781 175.25 L 183.800781 198.824219 L 168.179688 200.71875 Z M 189.734375 175.25 L 215.457031 175.25 L 215.457031 194.992188 L 189.734375 198.105469 Z M 244.550781 169.308594 L 221.394531 169.308594 L 221.394531 149.152344 L 248.433594 149.152344 Z M 183.800781 149.152344 L 183.800781 169.308594 L 158.839844 169.308594 L 152.84375 149.152344 Z M 221.394531 194.273438 L 221.394531 175.25 L 243.40625 175.25 L 240.179688 191.996094 Z M 221.394531 194.273438 " fill-opacity="1" fill-rule="nonzero"/></g><g clip-path="url(#63d63a1094)"><path fill="#ffffff" d="M 175.554688 247.835938 C 175.554688 248.660156 175.476562 249.472656 175.316406 250.28125 C 175.152344 251.089844 174.917969 251.871094 174.601562 252.632812 C 174.289062 253.390625 173.902344 254.113281 173.445312 254.796875 C 172.988281 255.484375 172.46875 256.117188 171.886719 256.699219 C 171.308594 257.28125 170.675781 257.800781 169.992188 258.257812 C 169.308594 258.714844 168.585938 259.097656 167.828125 259.414062 C 167.066406 259.730469 166.285156 259.964844 165.476562 260.128906 C 164.671875 260.289062 163.859375 260.367188 163.035156 260.367188 C 162.214844 260.367188 161.398438 260.289062 160.59375 260.128906 C 159.785156 259.964844 159.003906 259.730469 158.246094 259.414062 C 157.484375 259.097656 156.761719 258.714844 156.078125 258.257812 C 155.394531 257.800781 154.765625 257.28125 154.183594 256.699219 C 153.601562 256.117188 153.082031 255.484375 152.625 254.796875 C 152.167969 254.113281 151.785156 253.390625 151.46875 252.632812 C 151.152344 251.871094 150.917969 251.089844 150.757812 250.28125 C 150.597656 249.472656 150.515625 248.660156 150.515625 247.835938 C 150.515625 247.011719 150.597656 246.199219 150.757812 245.390625 C 150.917969 244.585938 151.152344 243.800781 151.46875 243.039062 C 151.785156 242.28125 152.167969 241.558594 152.625 240.875 C 153.082031 240.191406 153.601562 239.558594 154.183594 238.976562 C 154.765625 238.394531 155.394531 237.875 156.078125 237.417969 C 156.761719 236.960938 157.484375 236.574219 158.246094 236.257812 C 159.003906 235.945312 159.785156 235.707031 160.59375 235.546875 C 161.398438 235.386719 162.214844 235.304688 163.035156 235.304688 C 163.859375 235.304688 164.671875 235.386719 165.476562 235.546875 C 166.285156 235.707031 167.066406 235.945312 167.828125 236.257812 C 168.585938 236.574219 169.308594 236.960938 169.992188 237.417969 C 170.675781 237.875 171.308594 238.394531 171.886719 238.976562 C 172.46875 239.558594 172.988281 240.191406 173.445312 240.875 C 173.902344 241.558594 174.289062 242.28125 174.601562 243.039062 C 174.917969 243.800781 175.152344 244.585938 175.316406 245.390625 C 175.476562 246.199219 175.554688 247.011719 175.554688 247.835938 Z M 175.554688 247.835938 " fill-opacity="1" fill-rule="nonzero"/></g><g clip-path="url(#4c4bee2162)"><path fill="#ffffff" d="M 246.785156 247.835938 C 246.785156 248.660156 246.707031 249.472656 246.546875 250.28125 C 246.386719 251.089844 246.148438 251.871094 245.832031 252.632812 C 245.519531 253.390625 245.132812 254.113281 244.675781 254.796875 C 244.21875 255.484375 243.699219 256.117188 243.117188 256.699219 C 242.539062 257.28125 241.90625 257.800781 241.222656 258.257812 C 240.539062 258.714844 239.816406 259.097656 239.058594 259.414062 C 238.296875 259.730469 237.515625 259.964844 236.707031 260.128906 C 235.902344 260.289062 235.089844 260.367188 234.265625 260.367188 C 233.445312 260.367188 232.628906 260.289062 231.824219 260.128906 C 231.015625 259.964844 230.234375 259.730469 229.476562 259.414062 C 228.714844 259.097656 227.992188 258.714844 227.308594 258.257812 C 226.628906 257.800781 225.996094 257.28125 225.414062 256.699219 C 224.832031 256.117188 224.3125 255.484375 223.855469 254.796875 C 223.398438 254.113281 223.015625 253.390625 222.699219 252.632812 C 222.386719 251.871094 222.148438 251.089844 221.988281 250.28125 C 221.828125 249.472656 221.746094 248.660156 221.746094 247.835938 C 221.746094 247.011719 221.828125 246.199219 221.988281 245.390625 C 222.148438 244.585938 222.386719 243.800781 222.699219 243.039062 C 223.015625 242.28125 223.398438 241.558594 223.855469 240.875 C 224.3125 240.191406 224.832031 239.558594 225.414062 238.976562 C 225.996094 238.394531 226.628906 237.875 227.308594 237.417969 C 227.992188 236.960938 228.714844 236.574219 229.476562 236.257812 C 230.234375 235.945312 231.015625 235.707031 231.824219 235.546875 C 232.628906 235.386719 233.445312 235.304688 234.265625 235.304688 C 235.089844 235.304688 235.902344 235.386719 236.707031 235.546875 C 237.515625 235.707031 238.296875 235.945312 239.058594 236.257812 C 239.816406 236.574219 240.539062 236.960938 241.222656 237.417969 C 241.90625 237.875 242.539062 238.394531 243.117188 238.976562 C 243.699219 239.558594 244.21875 240.191406 244.675781 240.875 C 245.132812 241.558594 245.519531 242.28125 245.832031 243.039062 C 246.148438 243.800781 246.386719 244.585938 246.546875 245.390625 C 246.707031 246.199219 246.785156 247.011719 246.785156 247.835938 Z M 246.785156 247.835938 " fill-opacity="1" fill-rule="nonzero"/></g></svg>