<svg xmlns="http://www.w3.org/2000/svg" xmlns:xlink="http://www.w3.org/1999/xlink" width="50" zoomAndPan="magnify" viewBox="0 0 375 374.999991" height="50" preserveAspectRatio="xMidYMid meet" version="1.0"><defs><clipPath id="bf3edab4de"><path d="M 123.5625 110.976562 L 251.8125 110.976562 L 251.8125 260.976562 L 123.5625 260.976562 Z M 123.5625 110.976562 " clip-rule="nonzero"/></clipPath></defs><g clip-path="url(#bf3edab4de)"><path fill="#ffffff" d="M 243.566406 148.371094 L 131.777344 148.371094 L 141.339844 252.171875 C 141.800781 257.175781 146.0625 260.976562 151.207031 260.976562 L 224.136719 260.976562 C 229.28125 260.976562 233.542969 257.175781 234.003906 252.171875 Z M 123.601562 143.453125 L 251.742188 143.453125 L 251.742188 131.683594 C 251.742188 127.386719 246.320312 124.535156 241.027344 124.535156 L 208.074219 124.535156 L 208.074219 117.117188 C 208.074219 113.734375 205.308594 110.976562 201.917969 110.976562 L 173.425781 110.976562 C 170.035156 110.976562 167.269531 113.734375 167.269531 117.117188 L 167.269531 124.535156 L 134.320312 124.535156 C 129.023438 124.535156 123.601562 127.425781 123.601562 131.683594 Z M 203.140625 124.535156 L 172.203125 124.535156 L 172.203125 117.117188 C 172.203125 116.449219 172.757812 115.894531 173.425781 115.894531 L 201.917969 115.894531 C 202.585938 115.894531 203.140625 116.449219 203.140625 117.117188 Z M 151.160156 175.019531 L 162.261719 175.019531 L 167.726562 234.328125 L 156.621094 234.328125 Z M 193.277344 175.019531 L 193.125 234.328125 L 182.070312 234.328125 L 182.21875 175.019531 Z M 222.203125 175.019531 L 216.738281 234.328125 L 205.636719 234.328125 L 211.101562 175.019531 Z M 222.203125 175.019531 " fill-opacity="1" fill-rule="evenodd"/></g></svg>