<svg xmlns="http://www.w3.org/2000/svg" xmlns:xlink="http://www.w3.org/1999/xlink" width="50" zoomAndPan="magnify" viewBox="0 0 375 374.999991" height="50" preserveAspectRatio="xMidYMid meet" version="1.0"><defs><clipPath id="4242bde5b9"><path d="M 113 114 L 262 114 L 262 262.296875 L 113 262.296875 Z M 113 114 " clip-rule="nonzero"/></clipPath></defs><rect x="-37.5" width="450" fill="#ffffff" y="-37.499999" height="449.999989" fill-opacity="1"/><rect x="-37.5" width="450" fill="#ffffff" y="-37.499999" height="449.999989" fill-opacity="1"/><rect x="-37.5" width="450" fill="#ffffff" y="-37.499999" height="449.999989" fill-opacity="1"/><g clip-path="url(#4242bde5b9)"><path fill="#23b0c1" d="M 203.683594 188.253906 L 258.085938 133.722656 C 262.546875 129.253906 262.546875 122.007812 258.085938 117.539062 C 253.628906 113.074219 246.402344 113.074219 241.945312 117.539062 L 187.539062 172.074219 L 133.136719 117.539062 C 128.675781 113.074219 121.449219 113.074219 116.992188 117.539062 C 112.535156 122.007812 112.535156 129.253906 116.992188 133.722656 L 171.398438 188.253906 L 116.992188 242.789062 C 112.535156 247.257812 112.535156 254.5 116.992188 258.96875 C 119.222656 261.203125 122.144531 262.320312 125.0625 262.320312 C 127.984375 262.320312 130.90625 261.203125 133.136719 258.96875 L 187.539062 204.433594 L 241.945312 258.96875 C 244.175781 261.203125 247.09375 262.320312 250.015625 262.320312 C 252.9375 262.320312 255.859375 261.203125 258.085938 258.96875 C 262.546875 254.5 262.546875 247.257812 258.085938 242.789062 Z M 203.683594 188.253906 " fill-opacity="1" fill-rule="nonzero"/></g></svg>