<svg xmlns="http://www.w3.org/2000/svg" xmlns:xlink="http://www.w3.org/1999/xlink" width="50" zoomAndPan="magnify" viewBox="0 0 375 374.999991" height="50" preserveAspectRatio="xMidYMid meet" version="1.0"><defs><clipPath id="c03debd658"><path d="M 112.5 111.953125 L 262.5 111.953125 L 262.5 261.953125 L 112.5 261.953125 Z M 112.5 111.953125 " clip-rule="nonzero"/></clipPath></defs><g clip-path="url(#c03debd658)"><path fill="#ffffff" d="M 255.46875 261.953125 C 119.53125 261.953125 119.53125 261.953125 119.53125 261.953125 C 115.429688 261.953125 112.5 259.023438 112.5 254.925781 C 112.5 118.984375 112.5 118.984375 112.5 118.984375 C 112.5 114.882812 115.429688 111.953125 119.53125 111.953125 C 255.46875 111.953125 255.46875 111.953125 255.46875 111.953125 C 259.570312 111.953125 262.5 114.882812 262.5 118.984375 C 262.5 254.925781 262.5 254.925781 262.5 254.925781 C 262.5 259.023438 259.570312 261.953125 255.46875 261.953125 M 248.4375 126.015625 C 126.5625 126.015625 126.5625 126.015625 126.5625 126.015625 C 126.5625 247.890625 126.5625 247.890625 126.5625 247.890625 C 248.4375 247.890625 248.4375 247.890625 248.4375 247.890625 Z M 154.6875 161.171875 C 154.6875 157.070312 157.617188 154.140625 161.71875 154.140625 C 163.476562 154.140625 165.234375 154.730469 166.40625 156.484375 C 187.5 176.992188 187.5 176.992188 187.5 176.992188 C 208.59375 156.484375 208.59375 156.484375 208.59375 156.484375 C 209.765625 154.730469 211.523438 154.140625 213.28125 154.140625 C 217.382812 154.140625 220.3125 157.070312 220.3125 161.171875 C 220.3125 162.929688 219.726562 164.6875 217.96875 165.859375 C 197.460938 186.953125 197.460938 186.953125 197.460938 186.953125 C 217.96875 208.046875 217.96875 208.046875 217.96875 208.046875 C 219.726562 209.21875 220.3125 210.980469 220.3125 212.734375 C 220.3125 216.835938 217.382812 219.765625 213.28125 219.765625 C 211.523438 219.765625 209.765625 219.179688 208.59375 217.421875 C 187.5 196.914062 187.5 196.914062 187.5 196.914062 C 166.40625 217.421875 166.40625 217.421875 166.40625 217.421875 C 165.234375 219.179688 163.476562 219.765625 161.71875 219.765625 C 157.617188 219.765625 154.6875 216.835938 154.6875 212.734375 C 154.6875 210.980469 155.273438 209.21875 157.03125 208.046875 C 177.539062 186.953125 177.539062 186.953125 177.539062 186.953125 C 157.03125 165.859375 157.03125 165.859375 157.03125 165.859375 C 155.273438 164.6875 154.6875 162.929688 154.6875 161.171875 " fill-opacity="1" fill-rule="evenodd"/></g></svg>